<svg width="248" height="48" viewBox="0 0 248 48" fill="none" xmlns="http://www.w3.org/2000/svg">
<path d="M0 41.2408V6.06562C0 0.652098 5.77774 -1.72459 10.1942 1.4443L26.9158 15.561L43.6375 1.4443C48.0567 -1.72459 53.8317 0.652098 53.8317 6.06562V41.2408C53.8317 44.9716 50.7962 47.9972 47.0534 47.9972H6.17796C2.16172 47.9972 0 45.6318 0 41.2408Z" fill="#F7F7F9"/>
<path d="M58.7892 39.8362L79.685 3.36589C82.2553 -1.11494 86.5647 -1.12899 89.1435 3.36589L110.031 39.8362C112.77 44.6148 111.082 48 105.555 48H63.2649C57.7408 48 56.0526 44.6204 58.7892 39.8362Z" fill="#F7F7F9"/>
<path d="M137.257 39.4064V41.2408C137.257 44.9716 134.221 47.9972 130.478 47.9972H121.49C117.745 47.9972 114.712 44.9716 114.712 41.2408V7.56014C114.712 3.82658 117.748 0.800986 121.493 0.800986H136.831C154.652 0.800986 160.965 8.65577 160.965 20.1318C160.965 31.6077 154.753 39.2827 137.259 39.4064H137.257Z" fill="#F7F7F9"/>
<path d="M164.191 41.2408V7.56014C164.191 3.82658 167.227 0.800986 170.972 0.800986H179.96C183.706 0.800986 186.739 3.82658 186.739 7.55733V16.5331H195.743C199.489 16.5331 202.522 19.5587 202.522 23.2894V41.238C202.522 44.9688 199.486 47.9944 195.743 47.9944H170.972C167.227 47.9944 164.194 44.9688 164.194 41.238L164.191 41.2408Z" fill="#F7F7F9"/>
<path d="M240.304 16.5331H230.6C233.943 17.4854 236.386 20.5532 236.386 24.1884C236.386 28.0259 233.669 31.2257 230.05 31.9842H240.321C244.712 31.9842 247.082 34.3412 247.082 38.7237V41.2549C247.082 45.6346 244.712 47.9972 240.315 47.9972H212.982C208.582 47.9972 206.215 45.6346 206.215 41.2549V7.5433C206.215 3.1608 208.582 0.800986 212.982 0.800986H240.315C244.712 0.800986 247.082 3.1608 247.082 7.5433V9.77668C247.082 13.5074 244.047 16.5302 240.306 16.5302L240.304 16.5331Z" fill="#F7F7F9"/>
</svg>
