<svg xmlns="http://www.w3.org/2000/svg" viewBox="0 0 56 56" role="img" aria-labelledby="title desc">
  <title id="title">Maple favicon</title>
  <desc id="desc">The Maple app icon from the Maple brand system.</desc>
  <rect width="56" height="56" rx="12.25" fill="url(#paint0_radial)" fill-opacity="0.9"/>
  <path d="M10.6469 32.1411V24.0427C10.6469 22.7379 12.0332 22.1651 13.093 22.9289L17.1053 25.9519L21.1176 22.9289C22.1779 22.1651 23.5636 22.7379 23.5636 24.0427V32.1411C23.5636 33.0403 22.8353 33.7695 21.9372 33.7695H12.1293C11.1656 33.7695 10.6469 33.1994 10.6469 32.1411Z" fill="#F7F7F9"/>
  <path d="M29.9868 31.699V32.1411C29.9868 33.0403 29.2584 33.7695 28.3604 33.7695H26.2037C25.305 33.7695 24.5773 33.0403 24.5773 32.1411V24.0236C24.5773 23.1237 25.3057 22.3945 26.2044 22.3945H29.8847C34.1607 22.3945 35.6755 24.2877 35.6755 27.0535C35.6755 29.8194 34.1844 31.6692 29.9868 31.699Z" fill="#F7F7F9"/>
  <path d="M36.4496 32.1411V24.0236C36.4496 23.1237 37.178 22.3945 38.0767 22.3945H40.2334C41.1321 22.3945 41.8598 23.1237 41.8598 24.0229V26.1862H44.0205C44.9192 26.1862 45.6469 26.9154 45.6469 27.8146V32.1405C45.6469 33.0396 44.9186 33.7689 44.0205 33.7689H38.0767C37.178 33.7689 36.4503 33.0396 36.4503 32.1405L36.4496 32.1411Z" fill="#F7F7F9"/>
  <defs>
    <radialGradient id="paint0_radial" cx="0" cy="0" r="1" gradientUnits="userSpaceOnUse" gradientTransform="translate(28 56) rotate(90) scale(55.7971 32.2186)">
      <stop stop-color="#FF9771"/>
      <stop offset="1" stop-color="#9C9DAB"/>
    </radialGradient>
  </defs>
</svg>
