<?xml version="1.0" encoding="UTF-8"?>
<!-- Generated by Pixelmator Pro 3.6.17 -->
<svg width="371" height="160" viewBox="0 0 371 160" xmlns="http://www.w3.org/2000/svg">
    <path id="Path" fill="#111111" stroke="none" d="M 291 127.5 L 291 31.5 C 291 30.75 291.25 30.166702 291.75 29.75 C 292.333008 29.25 292.916992 29 293.5 29 L 336.125 29 C 336.875 29 337.458008 29.291702 337.875 29.875 C 338.375 30.375 338.625 30.916702 338.625 31.5 L 338.625 42.125 C 338.625 42.875 338.333008 43.5 337.75 44 C 337.25 44.416702 336.708008 44.625 336.125 44.625 L 306.625 44.625 L 306.625 71.625 L 328.125 71.625 C 328.875 71.625 329.458008 71.916702 329.875 72.5 C 330.375 73 330.625 73.541702 330.625 74.125 L 330.625 84.875 C 330.625 85.625 330.333008 86.25 329.75 86.75 C 329.25 87.166702 328.708008 87.375 328.125 87.375 L 306.625 87.375 L 306.625 114.375 L 336.125 114.375 C 336.875 114.375 337.458008 114.667 337.875 115.25 C 338.375 115.75 338.625 116.292 338.625 116.875 L 338.625 127.5 C 338.625 128.25 338.333008 128.875 337.75 129.375 C 337.25 129.792007 336.708008 130 336.125 130 L 293.5 130 C 292.75 130 292.125 129.75 291.625 129.25 C 291.208008 128.667007 291 128.082993 291 127.5 Z"/>
    <path id="path1" fill="#111111" stroke="none" d="M 234 127.5 L 234 31.5 C 234 30.75 234.25 30.166702 234.75 29.75 C 235.332993 29.25 235.917007 29 236.5 29 L 247.125 29 C 247.875 29 248.457993 29.291702 248.875 29.875 C 249.375 30.375 249.625 30.916702 249.625 31.5 L 249.625 114.375 L 279.125 114.375 C 279.875 114.375 280.458008 114.667 280.875 115.25 C 281.375 115.75 281.625 116.292 281.625 116.875 L 281.625 127.5 C 281.625 128.25 281.333008 128.875 280.75 129.375 C 280.25 129.792007 279.708008 130 279.125 130 L 236.5 130 C 235.75 130 235.125 129.75 234.625 129.25 C 234.207993 128.667007 234 128.082993 234 127.5 Z"/>
    <path id="path2" fill="#111111" stroke="none" d="M 200.875 82.25 C 203.042007 82.25 204.957993 81.5 206.625 80 C 208.207993 78.333298 209 76.375 209 74.125 L 209 52.875 C 209 50.625 208.207993 48.708298 206.625 47.125 C 204.957993 45.458298 203.042007 44.625 200.875 44.625 L 192.625 44.625 L 192.625 82.25 L 200.875 82.25 Z M 177 127.5 L 177 31.5 C 177 30.75 177.25 30.166702 177.75 29.75 C 178.332993 29.25 178.917007 29 179.5 29 L 200.875 29 C 207.375 29 212.957993 31.375 217.625 36.125 C 222.292007 40.791702 224.625 46.375 224.625 52.875 L 224.625 74.125 C 224.625 80.708298 222.292007 86.333298 217.625 91 C 212.957993 95.666702 207.375 98 200.875 98 L 192.625 98 L 192.625 127.5 C 192.625 128.25 192.332993 128.875 191.75 129.375 C 191.25 129.792007 190.707993 130 190.125 130 L 179.5 130 C 178.75 130 178.125 129.75 177.625 129.25 C 177.207993 128.667007 177 128.082993 177 127.5 Z"/>
    <path id="path3" fill="#111111" stroke="none" d="M 143.375 93 L 136 63.125 L 128.5 93 L 143.375 93 Z M 104.25 126.875 L 128.25 30.875 C 128.5 29.625 129.292007 29 130.625 29 L 141.25 29 C 142.582993 29 143.375 29.625 143.625 30.875 L 167.625 126.875 C 167.707993 127.292 167.75 127.667 167.75 128 C 167.75 129.332993 166.917007 130 165.25 130 L 154.625 130 C 153.292007 130 152.5 129.375 152.25 128.125 L 147.25 108.625 L 124.625 108.625 L 119.625 128.125 C 119.375 129.375 118.583 130 117.25 130 L 106.625 130 C 106.292 130 105.958 130 105.625 130 C 105.292 129.917007 104.917 129.625 104.5 129.125 C 104.25 128.792007 104.125 128.375 104.125 127.875 C 104.125 127.542 104.167 127.208 104.25 126.875 Z"/>
    <path id="path4" fill="#111111" stroke="none" d="M 94.625 31.5 L 94.625 127.5 C 94.625 128.25 94.333298 128.875 93.75 129.375 C 93.25 129.792007 92.708298 130 92.125 130 L 81.5 130 C 80.75 130 80.125 129.75 79.625 129.25 C 79.208298 128.667007 79 128.082993 79 127.5 L 79 94.5 L 70.5 128.125 C 70.25 129.375 69.458298 130 68.125 130 L 57.5 130 C 56.166698 130 55.375 129.375 55.125 128.125 L 46.625 94.25 L 46.625 127.5 C 46.625 128.25 46.333302 128.875 45.75 129.375 C 45.25 129.792007 44.708302 130 44.125 130 L 33.5 130 C 32.75 130 32.125 129.75 31.625 129.25 C 31.2083 128.667007 31 128.082993 31 127.5 L 31 31.5 C 31 30.75 31.25 30.166702 31.75 29.75 C 32.333302 29.25 32.916698 29 33.5 29 L 44.125 29 C 45.458302 29 46.25 29.625 46.5 30.875 L 62.875 95.875 L 79.125 30.875 C 79.375 29.625 80.166702 29 81.5 29 L 92.125 29 C 92.875 29 93.458298 29.291702 93.875 29.875 C 94.375 30.375 94.625 30.916702 94.625 31.5 Z"/>
</svg>
