<svg width="102" height="32" viewBox="0 0 102 32" fill="none" xmlns="http://www.w3.org/2000/svg">
<path d="M0 27.4798V4.02964C0 0.420626 3.85183 -1.16383 6.79613 0.948761L17.9439 10.3599L29.0916 0.948761C32.0378 -1.16383 35.8878 0.420626 35.8878 4.02964V27.4798C35.8878 29.967 33.8642 31.984 31.3689 31.984H4.11864C1.44115 31.984 0 30.4071 0 27.4798Z" fill="#F7F7F9"/>
<path d="M56.3789 26.0034V27.2264C56.3789 29.7135 54.3553 31.7306 51.8601 31.7306H45.8681C43.371 31.7306 41.3493 29.7135 41.3493 27.2264V4.77258C41.3493 2.28354 43.3729 0.266478 45.87 0.266478H56.0952C67.9758 0.266478 72.1846 5.503 72.1846 13.1537C72.1846 20.8043 68.0434 25.921 56.3808 26.0034H56.3789Z" fill="#F7F7F9"/>
<path d="M76.3353 27.2264V4.77258C76.3353 2.28354 78.3589 0.266478 80.8561 0.266478H86.848C89.3451 0.266478 91.3669 2.28354 91.3669 4.77071V10.7545H97.3701C99.8672 10.7545 101.889 12.7716 101.889 15.2588V27.2245C101.889 29.7117 99.8653 31.7288 97.3701 31.7288H80.8561C78.3589 31.7288 76.3372 29.7117 76.3372 27.2245L76.3353 27.2264Z" fill="#F7F7F9"/>
</svg>
