<svg width="120" height="120" viewBox="0 0 120 120" fill="none" xmlns="http://www.w3.org/2000/svg">
<rect width="120" height="120" rx="60" fill="url(#paint0_radial_1_319)" fill-opacity="0.9"/>
<path d="M20 69.278V50.7672C20 47.785 23.1688 46.4757 25.591 48.2214L34.762 55.1312L43.933 48.2214C46.3567 46.4757 49.524 47.785 49.524 50.7672V69.278C49.524 71.3332 47.8592 73 45.8064 73H23.3883C21.1856 73 20 71.6969 20 69.278Z" fill="#F7F7F9"/>
<path d="M64.2055 68.2674V69.278C64.2055 71.3332 62.5407 73 60.4879 73H55.5585C53.5042 73 51.8409 71.3332 51.8409 69.278V50.7236C51.8409 48.6668 53.5057 47 55.56 47H63.972C73.7459 47 77.2084 51.3271 77.2084 57.6492C77.2084 63.9712 73.8015 68.1993 64.207 68.2674H64.2055Z" fill="#F7F7F9"/>
<path d="M78.9777 69.278V50.7236C78.9777 48.6668 80.6425 47 82.6968 47H87.6262C89.6805 47 91.3438 48.6668 91.3438 50.722V55.6667H96.2825C98.3368 55.6667 100 57.3334 100 59.3887V69.2764C100 71.3317 98.3352 72.9984 96.2825 72.9984H82.6968C80.6425 72.9984 78.9793 71.3317 78.9793 69.2764L78.9777 69.278Z" fill="#F7F7F9"/>
<defs>
<radialGradient id="paint0_radial_1_319" cx="0" cy="0" r="1" gradientUnits="userSpaceOnUse" gradientTransform="translate(60 120) rotate(90) scale(119.565 69.0398)">
<stop stop-color="#FF9771"/>
<stop offset="1" stop-color="#9C9DAB"/>
</radialGradient>
</defs>
</svg>
